<mxfile host="Electron" agent="Mozilla/5.0 (Windows NT 10.0; Win64; x64) AppleWebKit/537.36 (KHTML, like Gecko) draw.io/24.7.5 Chrome/126.0.6478.183 Electron/31.3.0 Safari/537.36" version="24.7.5">
  <diagram id="v6J2Fcln8kv8FsL8eZeO" name="第 1 页">
    <mxGraphModel dx="3452" dy="2962" grid="1" gridSize="10" guides="1" tooltips="1" connect="1" arrows="1" fold="1" page="1" pageScale="1" pageWidth="827" pageHeight="1169" math="0" shadow="0">
      <root>
        <mxCell id="0" />
        <mxCell id="1" parent="0" />
        <mxCell id="OeQdHstX1ipTwiemMq3e-189" value="" style="rounded=1;whiteSpace=wrap;html=1;strokeWidth=2;fillColor=#f5f5f5;strokeColor=#666666;arcSize=8;fontFamily=Times New Roman;fontStyle=1;fontSize=18;fontColor=#333333;" parent="1" vertex="1">
          <mxGeometry x="-269.74" y="-384" width="1028.22" height="80" as="geometry" />
        </mxCell>
        <mxCell id="OeQdHstX1ipTwiemMq3e-196" style="edgeStyle=orthogonalEdgeStyle;rounded=1;orthogonalLoop=1;jettySize=auto;html=1;exitX=1;exitY=0.5;exitDx=0;exitDy=0;entryX=0.5;entryY=0;entryDx=0;entryDy=0;fontSize=16;fontColor=#000000;strokeWidth=2;fillColor=#dae8fc;strokeColor=#6c8ebf;" parent="1" source="j4nsU8ipHiP7FBhPCXxy-51" target="OeQdHstX1ipTwiemMq3e-190" edge="1">
          <mxGeometry relative="1" as="geometry">
            <Array as="points">
              <mxPoint x="1398.48" y="-1030" />
              <mxPoint x="1398.48" y="-558" />
              <mxPoint x="11.480000000000018" y="-558" />
            </Array>
          </mxGeometry>
        </mxCell>
        <mxCell id="j4nsU8ipHiP7FBhPCXxy-51" value="" style="rounded=1;whiteSpace=wrap;html=1;strokeWidth=2;fillColor=#CCE7E5;strokeColor=#00897B;arcSize=8;fontFamily=Times New Roman;fontStyle=1;fontSize=18;" parent="1" vertex="1">
          <mxGeometry x="-269.95" y="-1070" width="1539.43" height="80" as="geometry" />
        </mxCell>
        <mxCell id="OeQdHstX1ipTwiemMq3e-71" value="" style="rounded=1;whiteSpace=wrap;html=1;strokeWidth=2;gradientDirection=east;fillColor=#f8cecc;strokeColor=#b85450;fontFamily=Times New Roman;fontStyle=1;fontSize=18;" parent="1" vertex="1">
          <mxGeometry x="-195.26" y="-1060" width="349.74" height="60" as="geometry" />
        </mxCell>
        <mxCell id="j4nsU8ipHiP7FBhPCXxy-42" value="" style="rounded=1;whiteSpace=wrap;html=1;strokeWidth=2;fillColor=#CCE7E5;strokeColor=#00897B;arcSize=12;fontFamily=Times New Roman;fontStyle=1;fontSize=18;" parent="1" vertex="1">
          <mxGeometry x="-269.84999999999997" y="-740" width="120.11" height="40" as="geometry" />
        </mxCell>
        <mxCell id="j4nsU8ipHiP7FBhPCXxy-43" value="1019" style="rounded=1;whiteSpace=wrap;html=1;strokeWidth=2;gradientDirection=east;fillColor=#fff2cc;strokeColor=#d6b656;fontFamily=Times New Roman;fontStyle=1;fontSize=18;" parent="1" vertex="1">
          <mxGeometry x="-260.2100000000001" y="-735" width="101.36" height="30" as="geometry" />
        </mxCell>
        <mxCell id="wp81bA6mAi3hyo_PxzSs-2" style="edgeStyle=orthogonalEdgeStyle;rounded=1;orthogonalLoop=1;jettySize=auto;html=1;exitX=0;exitY=0.5;exitDx=0;exitDy=0;entryX=0;entryY=0.5;entryDx=0;entryDy=0;fillColor=#dae8fc;strokeColor=#6c8ebf;strokeWidth=2;" parent="1" source="j4nsU8ipHiP7FBhPCXxy-44" target="OeQdHstX1ipTwiemMq3e-205" edge="1">
          <mxGeometry relative="1" as="geometry">
            <Array as="points">
              <mxPoint x="-461.52" y="-720" />
              <mxPoint x="-461.52" y="-138" />
            </Array>
          </mxGeometry>
        </mxCell>
        <mxCell id="j4nsU8ipHiP7FBhPCXxy-44" value="&lt;span style=&quot;font-size: 20px&quot;&gt;svr-&amp;gt;nav.eph[]&lt;/span&gt;&lt;font color=&quot;#ffffff&quot;&gt;&lt;br&gt;&lt;/font&gt;" style="rounded=1;whiteSpace=wrap;html=1;strokeWidth=2;gradientDirection=east;fillColor=#dae8fc;strokeColor=#6c8ebf;fontFamily=Times New Roman;fontStyle=1;fontSize=18;" parent="1" vertex="1">
          <mxGeometry x="-439.38" y="-740" width="169.64" height="40" as="geometry" />
        </mxCell>
        <mxCell id="j4nsU8ipHiP7FBhPCXxy-62" value="&lt;font style=&quot;font-size: 18px&quot;&gt;epoch_1&lt;/font&gt;" style="text;html=1;strokeColor=none;fillColor=none;align=center;verticalAlign=middle;whiteSpace=wrap;rounded=0;dashed=1;fontFamily=Times New Roman;fontStyle=1" parent="1" vertex="1">
          <mxGeometry x="-264.39999999999975" y="-1040" width="69.16" height="20" as="geometry" />
        </mxCell>
        <mxCell id="wp81bA6mAi3hyo_PxzSs-3" style="edgeStyle=orthogonalEdgeStyle;rounded=1;orthogonalLoop=1;jettySize=auto;html=1;exitX=0;exitY=0.5;exitDx=0;exitDy=0;entryX=0;entryY=0.5;entryDx=0;entryDy=0;strokeWidth=2;fillColor=#dae8fc;strokeColor=#6c8ebf;" parent="1" source="j4nsU8ipHiP7FBhPCXxy-143" target="OeQdHstX1ipTwiemMq3e-205" edge="1">
          <mxGeometry relative="1" as="geometry" />
        </mxCell>
        <mxCell id="j4nsU8ipHiP7FBhPCXxy-143" value="&lt;span style=&quot;color: rgb(0 , 0 , 0) ; font-size: 20px&quot;&gt;svr-&amp;gt;nav.geph[]&lt;/span&gt;&lt;font color=&quot;#ffffff&quot;&gt;&lt;br&gt;&lt;/font&gt;" style="rounded=1;whiteSpace=wrap;html=1;strokeWidth=2;gradientDirection=east;fillColor=#dae8fc;strokeColor=#6c8ebf;fontFamily=Times New Roman;fontStyle=1;fontSize=18;" parent="1" vertex="1">
          <mxGeometry x="-440.37" y="-690" width="170" height="40" as="geometry" />
        </mxCell>
        <mxCell id="j4nsU8ipHiP7FBhPCXxy-154" value="&lt;span style=&quot;font-size: 20px ; text-align: left&quot;&gt;svr-&amp;gt;obs[]&lt;br&gt;&lt;/span&gt;(obs[epoch_n][sat_n])" style="rounded=1;whiteSpace=wrap;html=1;strokeWidth=2;gradientDirection=east;fillColor=#dae8fc;strokeColor=#6c8ebf;fontFamily=Times New Roman;fontStyle=1;fontSize=18;arcSize=7;" parent="1" vertex="1">
          <mxGeometry x="-440.37" y="-1070" width="169.64" height="80" as="geometry" />
        </mxCell>
        <mxCell id="j4nsU8ipHiP7FBhPCXxy-161" value="" style="rounded=1;whiteSpace=wrap;html=1;strokeWidth=2;fillColor=#CCE7E5;strokeColor=#00897B;arcSize=12;fontFamily=Times New Roman;fontStyle=1;fontSize=18;" parent="1" vertex="1">
          <mxGeometry x="-149.78000000000003" y="-740" width="120.11" height="40" as="geometry" />
        </mxCell>
        <mxCell id="j4nsU8ipHiP7FBhPCXxy-162" value="1019" style="rounded=1;whiteSpace=wrap;html=1;strokeWidth=2;gradientDirection=east;fillColor=#EEEEEE;strokeColor=none;fontFamily=Times New Roman;fontStyle=1;fontSize=18;" parent="1" vertex="1">
          <mxGeometry x="-140.14000000000016" y="-735" width="101.36" height="30" as="geometry" />
        </mxCell>
        <mxCell id="j4nsU8ipHiP7FBhPCXxy-163" value="" style="rounded=1;whiteSpace=wrap;html=1;strokeWidth=2;fillColor=#CCE7E5;strokeColor=#00897B;arcSize=12;fontFamily=Times New Roman;fontStyle=1;fontSize=18;" parent="1" vertex="1">
          <mxGeometry x="-29.66999999999996" y="-740" width="120.11" height="40" as="geometry" />
        </mxCell>
        <mxCell id="j4nsU8ipHiP7FBhPCXxy-164" value="1019" style="rounded=1;whiteSpace=wrap;html=1;strokeWidth=2;gradientDirection=east;fillColor=#EEEEEE;strokeColor=none;fontFamily=Times New Roman;fontStyle=1;fontSize=18;" parent="1" vertex="1">
          <mxGeometry x="-20.030000000000086" y="-735" width="101.36" height="30" as="geometry" />
        </mxCell>
        <mxCell id="j4nsU8ipHiP7FBhPCXxy-165" value="" style="rounded=1;whiteSpace=wrap;html=1;strokeWidth=2;fillColor=#CCE7E5;strokeColor=#00897B;arcSize=12;fontFamily=Times New Roman;fontStyle=1;fontSize=18;" parent="1" vertex="1">
          <mxGeometry x="90.39999999999998" y="-740" width="120.11" height="40" as="geometry" />
        </mxCell>
        <mxCell id="j4nsU8ipHiP7FBhPCXxy-166" value="......" style="rounded=1;whiteSpace=wrap;html=1;strokeWidth=2;gradientDirection=east;fillColor=#EEEEEE;strokeColor=none;fontFamily=Times New Roman;fontStyle=1;fontSize=18;" parent="1" vertex="1">
          <mxGeometry x="100.04000000000008" y="-735" width="101.36" height="30" as="geometry" />
        </mxCell>
        <mxCell id="j4nsU8ipHiP7FBhPCXxy-173" value="" style="rounded=1;whiteSpace=wrap;html=1;strokeWidth=2;fillColor=#CCE7E5;strokeColor=#00897B;arcSize=12;fontFamily=Times New Roman;fontStyle=1;fontSize=18;" parent="1" vertex="1">
          <mxGeometry x="210.89" y="-740" width="120.11" height="40" as="geometry" />
        </mxCell>
        <mxCell id="j4nsU8ipHiP7FBhPCXxy-174" value="&lt;font color=&quot;#0000cc&quot;&gt;1042&lt;/font&gt;" style="rounded=1;whiteSpace=wrap;html=1;strokeWidth=2;gradientDirection=east;fillColor=#EEEEEE;strokeColor=none;fontFamily=Times New Roman;fontStyle=1;fontSize=18;" parent="1" vertex="1">
          <mxGeometry x="220.52999999999986" y="-735" width="101.36" height="30" as="geometry" />
        </mxCell>
        <mxCell id="j4nsU8ipHiP7FBhPCXxy-175" value="" style="rounded=1;whiteSpace=wrap;html=1;strokeWidth=2;fillColor=#CCE7E5;strokeColor=#00897B;arcSize=12;fontFamily=Times New Roman;fontStyle=1;fontSize=18;" parent="1" vertex="1">
          <mxGeometry x="330.9599999999997" y="-740" width="120.11" height="40" as="geometry" />
        </mxCell>
        <mxCell id="j4nsU8ipHiP7FBhPCXxy-176" value="&lt;font color=&quot;#0000cc&quot;&gt;1042&lt;/font&gt;" style="rounded=1;whiteSpace=wrap;html=1;strokeWidth=2;gradientDirection=east;fillColor=#EEEEEE;strokeColor=none;fontFamily=Times New Roman;fontStyle=1;fontSize=18;" parent="1" vertex="1">
          <mxGeometry x="340.6" y="-735" width="101.36" height="30" as="geometry" />
        </mxCell>
        <mxCell id="j4nsU8ipHiP7FBhPCXxy-177" value="" style="rounded=1;whiteSpace=wrap;html=1;strokeWidth=2;fillColor=#CCE7E5;strokeColor=#00897B;arcSize=12;fontFamily=Times New Roman;fontStyle=1;fontSize=18;" parent="1" vertex="1">
          <mxGeometry x="451.0699999999998" y="-740" width="120.11" height="40" as="geometry" />
        </mxCell>
        <mxCell id="j4nsU8ipHiP7FBhPCXxy-178" value="&lt;font color=&quot;#0000cc&quot;&gt;1042&lt;/font&gt;" style="rounded=1;whiteSpace=wrap;html=1;strokeWidth=2;gradientDirection=east;fillColor=#EEEEEE;strokeColor=none;fontFamily=Times New Roman;fontStyle=1;fontSize=18;" parent="1" vertex="1">
          <mxGeometry x="460.7099999999997" y="-735" width="101.36" height="30" as="geometry" />
        </mxCell>
        <mxCell id="j4nsU8ipHiP7FBhPCXxy-179" value="" style="rounded=1;whiteSpace=wrap;html=1;strokeWidth=2;fillColor=#CCE7E5;strokeColor=#00897B;arcSize=12;fontFamily=Times New Roman;fontStyle=1;fontSize=18;" parent="1" vertex="1">
          <mxGeometry x="571.1400000000001" y="-740" width="120.11" height="40" as="geometry" />
        </mxCell>
        <mxCell id="j4nsU8ipHiP7FBhPCXxy-180" value="&lt;font color=&quot;#0000cc&quot;&gt;......&lt;/font&gt;" style="rounded=1;whiteSpace=wrap;html=1;strokeWidth=2;gradientDirection=east;fillColor=#EEEEEE;strokeColor=none;fontFamily=Times New Roman;fontStyle=1;fontSize=18;" parent="1" vertex="1">
          <mxGeometry x="580.78" y="-735" width="101.36" height="30" as="geometry" />
        </mxCell>
        <mxCell id="j4nsU8ipHiP7FBhPCXxy-187" value="" style="rounded=1;whiteSpace=wrap;html=1;strokeWidth=2;fillColor=#CCE7E5;strokeColor=#00897B;arcSize=12;fontFamily=Times New Roman;fontStyle=1;fontSize=18;" parent="1" vertex="1">
          <mxGeometry x="691.2499999999998" y="-740" width="120.11" height="40" as="geometry" />
        </mxCell>
        <mxCell id="j4nsU8ipHiP7FBhPCXxy-188" value="&lt;font color=&quot;#cc0000&quot;&gt;1046&lt;/font&gt;" style="rounded=1;whiteSpace=wrap;html=1;strokeWidth=2;gradientDirection=east;fillColor=#EEEEEE;strokeColor=none;fontFamily=Times New Roman;fontStyle=1;fontSize=18;" parent="1" vertex="1">
          <mxGeometry x="700.8900000000001" y="-735" width="101.36" height="30" as="geometry" />
        </mxCell>
        <mxCell id="j4nsU8ipHiP7FBhPCXxy-189" value="" style="rounded=1;whiteSpace=wrap;html=1;strokeWidth=2;fillColor=#CCE7E5;strokeColor=#00897B;arcSize=12;fontFamily=Times New Roman;fontStyle=1;fontSize=18;" parent="1" vertex="1">
          <mxGeometry x="811.3199999999999" y="-740" width="120.11" height="40" as="geometry" />
        </mxCell>
        <mxCell id="j4nsU8ipHiP7FBhPCXxy-190" value="&lt;font color=&quot;#cc0000&quot;&gt;1046&lt;/font&gt;" style="rounded=1;whiteSpace=wrap;html=1;strokeWidth=2;gradientDirection=east;fillColor=#EEEEEE;strokeColor=none;fontFamily=Times New Roman;fontStyle=1;fontSize=18;" parent="1" vertex="1">
          <mxGeometry x="820.9599999999998" y="-735" width="101.36" height="30" as="geometry" />
        </mxCell>
        <mxCell id="j4nsU8ipHiP7FBhPCXxy-191" value="" style="rounded=1;whiteSpace=wrap;html=1;strokeWidth=2;fillColor=#CCE7E5;strokeColor=#00897B;arcSize=12;fontFamily=Times New Roman;fontStyle=1;fontSize=18;" parent="1" vertex="1">
          <mxGeometry x="931.4300000000001" y="-740" width="120.11" height="40" as="geometry" />
        </mxCell>
        <mxCell id="j4nsU8ipHiP7FBhPCXxy-192" value="&lt;font color=&quot;#cc0000&quot;&gt;1046&lt;/font&gt;" style="rounded=1;whiteSpace=wrap;html=1;strokeWidth=2;gradientDirection=east;fillColor=#EEEEEE;strokeColor=none;fontFamily=Times New Roman;fontStyle=1;fontSize=18;" parent="1" vertex="1">
          <mxGeometry x="941.0699999999999" y="-735" width="101.36" height="30" as="geometry" />
        </mxCell>
        <mxCell id="j4nsU8ipHiP7FBhPCXxy-193" value="" style="rounded=1;whiteSpace=wrap;html=1;strokeWidth=2;fillColor=#CCE7E5;strokeColor=#00897B;arcSize=12;fontFamily=Times New Roman;fontStyle=1;fontSize=18;" parent="1" vertex="1">
          <mxGeometry x="1051.5399999999997" y="-740" width="120.11" height="40" as="geometry" />
        </mxCell>
        <mxCell id="j4nsU8ipHiP7FBhPCXxy-194" value="&lt;font color=&quot;#cc0000&quot;&gt;......&lt;/font&gt;" style="rounded=1;whiteSpace=wrap;html=1;strokeWidth=2;gradientDirection=east;fillColor=#EEEEEE;strokeColor=none;fontFamily=Times New Roman;fontStyle=1;fontSize=18;" parent="1" vertex="1">
          <mxGeometry x="1061.18" y="-735" width="101.36" height="30" as="geometry" />
        </mxCell>
        <mxCell id="j4nsU8ipHiP7FBhPCXxy-195" value="" style="rounded=1;whiteSpace=wrap;html=1;strokeWidth=2;fillColor=#CCE7E5;strokeColor=#00897B;arcSize=12;fontFamily=Times New Roman;fontStyle=1;fontSize=18;" parent="1" vertex="1">
          <mxGeometry x="-270.09999999999997" y="-690" width="120.11" height="40" as="geometry" />
        </mxCell>
        <mxCell id="j4nsU8ipHiP7FBhPCXxy-196" value="1020" style="rounded=1;whiteSpace=wrap;html=1;strokeWidth=2;gradientDirection=east;fillColor=#EEEEEE;strokeColor=none;fontFamily=Times New Roman;fontStyle=1;fontSize=18;" parent="1" vertex="1">
          <mxGeometry x="-260.4600000000001" y="-685" width="101.36" height="30" as="geometry" />
        </mxCell>
        <mxCell id="j4nsU8ipHiP7FBhPCXxy-197" value="" style="rounded=1;whiteSpace=wrap;html=1;strokeWidth=2;fillColor=#CCE7E5;strokeColor=#00897B;arcSize=12;fontFamily=Times New Roman;fontStyle=1;fontSize=18;" parent="1" vertex="1">
          <mxGeometry x="-150.03000000000003" y="-690" width="120.11" height="40" as="geometry" />
        </mxCell>
        <mxCell id="j4nsU8ipHiP7FBhPCXxy-198" value="1020" style="rounded=1;whiteSpace=wrap;html=1;strokeWidth=2;gradientDirection=east;fillColor=#EEEEEE;strokeColor=none;fontFamily=Times New Roman;fontStyle=1;fontSize=18;" parent="1" vertex="1">
          <mxGeometry x="-140.39000000000016" y="-685" width="101.36" height="30" as="geometry" />
        </mxCell>
        <mxCell id="j4nsU8ipHiP7FBhPCXxy-199" value="" style="rounded=1;whiteSpace=wrap;html=1;strokeWidth=2;fillColor=#CCE7E5;strokeColor=#00897B;arcSize=12;fontFamily=Times New Roman;fontStyle=1;fontSize=18;" parent="1" vertex="1">
          <mxGeometry x="-29.91999999999996" y="-690" width="120.11" height="40" as="geometry" />
        </mxCell>
        <mxCell id="j4nsU8ipHiP7FBhPCXxy-200" value="1020" style="rounded=1;whiteSpace=wrap;html=1;strokeWidth=2;gradientDirection=east;fillColor=#EEEEEE;strokeColor=none;fontFamily=Times New Roman;fontStyle=1;fontSize=18;" parent="1" vertex="1">
          <mxGeometry x="-20.280000000000086" y="-685" width="101.36" height="30" as="geometry" />
        </mxCell>
        <mxCell id="j4nsU8ipHiP7FBhPCXxy-201" value="" style="rounded=1;whiteSpace=wrap;html=1;strokeWidth=2;fillColor=#CCE7E5;strokeColor=#00897B;arcSize=12;fontFamily=Times New Roman;fontStyle=1;fontSize=18;" parent="1" vertex="1">
          <mxGeometry x="90.1500000000002" y="-690" width="120.11" height="40" as="geometry" />
        </mxCell>
        <mxCell id="j4nsU8ipHiP7FBhPCXxy-202" value="......" style="rounded=1;whiteSpace=wrap;html=1;strokeWidth=2;gradientDirection=east;fillColor=#EEEEEE;strokeColor=none;fontFamily=Times New Roman;fontStyle=1;fontSize=18;" parent="1" vertex="1">
          <mxGeometry x="99.79000000000008" y="-685" width="101.36" height="30" as="geometry" />
        </mxCell>
        <mxCell id="tFMyB1QGywV4UnHlOq1o-2" value="&lt;span style=&quot;font-size: 20px&quot;&gt;2 * &lt;font color=&quot;#cc0000&quot;&gt;128&lt;/font&gt; * &lt;font color=&quot;#cc0000&quot;&gt;64&lt;/font&gt; * 96&lt;/span&gt;" style="text;html=1;strokeColor=none;fillColor=none;align=center;verticalAlign=middle;whiteSpace=wrap;rounded=0;dashed=1;fontFamily=Times New Roman;fontStyle=1" parent="1" vertex="1">
          <mxGeometry x="-430.54999999999995" y="-980" width="150" height="20" as="geometry" />
        </mxCell>
        <mxCell id="tFMyB1QGywV4UnHlOq1o-3" value="" style="rounded=1;whiteSpace=wrap;html=1;strokeWidth=2;fillColor=#CCE7E5;strokeColor=#00897B;arcSize=12;fontFamily=Times New Roman;fontStyle=1;fontSize=18;" parent="1" vertex="1">
          <mxGeometry x="-269.84999999999997" y="-640" width="120.11" height="40" as="geometry" />
        </mxCell>
        <mxCell id="tFMyB1QGywV4UnHlOq1o-4" value="1006" style="rounded=1;whiteSpace=wrap;html=1;strokeWidth=2;gradientDirection=east;fillColor=#ffe6cc;strokeColor=#d79b00;fontFamily=Times New Roman;fontStyle=1;fontSize=18;" parent="1" vertex="1">
          <mxGeometry x="-260.2100000000001" y="-635" width="101.36" height="30" as="geometry" />
        </mxCell>
        <mxCell id="tFMyB1QGywV4UnHlOq1o-5" value="&lt;span style=&quot;font-size: 20px&quot;&gt;svr-&amp;gt;rtk.rb&lt;/span&gt;&lt;font color=&quot;#ffffff&quot;&gt;&lt;br&gt;&lt;/font&gt;" style="rounded=1;whiteSpace=wrap;html=1;strokeWidth=2;gradientDirection=east;fillColor=#dae8fc;strokeColor=#6c8ebf;fontFamily=Times New Roman;fontStyle=1;fontSize=18;" parent="1" vertex="1">
          <mxGeometry x="-439.38" y="-640" width="169.64" height="40" as="geometry" />
        </mxCell>
        <mxCell id="OeQdHstX1ipTwiemMq3e-33" value="&lt;span style=&quot;font-size: 20px&quot;&gt;updatesvr&lt;br&gt;解析完buff后&lt;/span&gt;&lt;div&gt;&lt;span style=&quot;font-size: 20px&quot;&gt;的数据&lt;br&gt;&lt;/span&gt;&lt;/div&gt;" style="text;html=1;strokeColor=none;fillColor=none;align=center;verticalAlign=middle;whiteSpace=wrap;rounded=0;dashed=1;fontFamily=Times New Roman;fontStyle=1" parent="1" vertex="1">
          <mxGeometry x="-475" y="-890" width="122.51" height="80" as="geometry" />
        </mxCell>
        <mxCell id="OeQdHstX1ipTwiemMq3e-36" value="" style="rounded=1;whiteSpace=wrap;html=1;strokeWidth=2;gradientDirection=east;fillColor=#f5f5f5;strokeColor=#666666;fontFamily=Times New Roman;fontStyle=1;fontSize=18;fontColor=#333333;" parent="1" vertex="1">
          <mxGeometry x="167.76" y="-1060" width="350" height="60" as="geometry" />
        </mxCell>
        <mxCell id="OeQdHstX1ipTwiemMq3e-37" value="" style="rounded=1;whiteSpace=wrap;html=1;strokeWidth=2;gradientDirection=east;fillColor=#f5f5f5;strokeColor=#666666;fontFamily=Times New Roman;fontStyle=1;fontSize=18;fontColor=#333333;" parent="1" vertex="1">
          <mxGeometry x="530.8000000000002" y="-1060" width="350" height="60" as="geometry" />
        </mxCell>
        <mxCell id="OeQdHstX1ipTwiemMq3e-38" value="" style="rounded=1;whiteSpace=wrap;html=1;strokeWidth=2;gradientDirection=east;fillColor=#f5f5f5;strokeColor=#666666;fontFamily=Times New Roman;fontStyle=1;fontSize=18;fontColor=#333333;" parent="1" vertex="1">
          <mxGeometry x="895.6700000000001" y="-1060" width="350" height="60" as="geometry" />
        </mxCell>
        <mxCell id="OeQdHstX1ipTwiemMq3e-47" value="&lt;font color=&quot;#ffffff&quot;&gt;sat1&lt;br&gt;&lt;/font&gt;" style="rounded=1;whiteSpace=wrap;html=1;strokeWidth=2;gradientDirection=east;fillColor=#00897B;strokeColor=none;fontColor=#333333;fontFamily=Times New Roman;fontStyle=1;fontSize=18;" parent="1" vertex="1">
          <mxGeometry x="228.8499999999999" y="-1050" width="60" height="40" as="geometry" />
        </mxCell>
        <mxCell id="OeQdHstX1ipTwiemMq3e-48" value="&lt;font color=&quot;#ffffff&quot;&gt;sat2&lt;br&gt;&lt;/font&gt;" style="rounded=1;whiteSpace=wrap;html=1;strokeWidth=2;gradientDirection=east;fillColor=#00897B;strokeColor=none;fontColor=#333333;fontFamily=Times New Roman;fontStyle=1;fontSize=18;" parent="1" vertex="1">
          <mxGeometry x="299.5999999999999" y="-1050" width="60" height="40" as="geometry" />
        </mxCell>
        <mxCell id="OeQdHstX1ipTwiemMq3e-49" value="&lt;font color=&quot;#ffffff&quot;&gt;sat3&lt;br&gt;&lt;/font&gt;" style="rounded=1;whiteSpace=wrap;html=1;strokeWidth=2;gradientDirection=east;fillColor=#00897B;strokeColor=none;fontColor=#333333;fontFamily=Times New Roman;fontStyle=1;fontSize=18;" parent="1" vertex="1">
          <mxGeometry x="369.06999999999994" y="-1050" width="60" height="40" as="geometry" />
        </mxCell>
        <mxCell id="OeQdHstX1ipTwiemMq3e-50" value="&lt;font color=&quot;#ffffff&quot;&gt;...&lt;br&gt;&lt;/font&gt;" style="rounded=1;whiteSpace=wrap;html=1;strokeWidth=2;gradientDirection=east;fillColor=#00897B;strokeColor=none;fontColor=#333333;fontFamily=Times New Roman;fontStyle=1;fontSize=18;" parent="1" vertex="1">
          <mxGeometry x="440.06999999999994" y="-1050" width="60" height="40" as="geometry" />
        </mxCell>
        <mxCell id="OeQdHstX1ipTwiemMq3e-54" value="&lt;font style=&quot;font-size: 16px&quot;&gt;1087&lt;/font&gt;" style="text;html=1;strokeColor=none;fillColor=none;align=center;verticalAlign=middle;whiteSpace=wrap;rounded=0;dashed=1;fontFamily=Times New Roman;fontStyle=1" parent="1" vertex="1">
          <mxGeometry x="166.7299999999999" y="-1040" width="60" height="20" as="geometry" />
        </mxCell>
        <mxCell id="OeQdHstX1ipTwiemMq3e-55" value="&lt;font color=&quot;#ffffff&quot;&gt;sat1&lt;br&gt;&lt;/font&gt;" style="rounded=1;whiteSpace=wrap;html=1;strokeWidth=2;gradientDirection=east;fillColor=#00897B;strokeColor=none;fontColor=#333333;fontFamily=Times New Roman;fontStyle=1;fontSize=18;" parent="1" vertex="1">
          <mxGeometry x="591.8899999999999" y="-1050" width="60" height="40" as="geometry" />
        </mxCell>
        <mxCell id="OeQdHstX1ipTwiemMq3e-56" value="&lt;font color=&quot;#ffffff&quot;&gt;sat2&lt;br&gt;&lt;/font&gt;" style="rounded=1;whiteSpace=wrap;html=1;strokeWidth=2;gradientDirection=east;fillColor=#00897B;strokeColor=none;fontColor=#333333;fontFamily=Times New Roman;fontStyle=1;fontSize=18;" parent="1" vertex="1">
          <mxGeometry x="662.6399999999999" y="-1050" width="60" height="40" as="geometry" />
        </mxCell>
        <mxCell id="OeQdHstX1ipTwiemMq3e-57" value="&lt;font color=&quot;#ffffff&quot;&gt;sat3&lt;br&gt;&lt;/font&gt;" style="rounded=1;whiteSpace=wrap;html=1;strokeWidth=2;gradientDirection=east;fillColor=#00897B;strokeColor=none;fontColor=#333333;fontFamily=Times New Roman;fontStyle=1;fontSize=18;" parent="1" vertex="1">
          <mxGeometry x="732.1100000000001" y="-1050" width="60" height="40" as="geometry" />
        </mxCell>
        <mxCell id="OeQdHstX1ipTwiemMq3e-58" value="&lt;font color=&quot;#ffffff&quot;&gt;...&lt;br&gt;&lt;/font&gt;" style="rounded=1;whiteSpace=wrap;html=1;strokeWidth=2;gradientDirection=east;fillColor=#00897B;strokeColor=none;fontColor=#333333;fontFamily=Times New Roman;fontStyle=1;fontSize=18;" parent="1" vertex="1">
          <mxGeometry x="803.1100000000001" y="-1050" width="60" height="40" as="geometry" />
        </mxCell>
        <mxCell id="OeQdHstX1ipTwiemMq3e-62" value="&lt;font style=&quot;font-size: 16px&quot;&gt;1097&lt;/font&gt;" style="text;html=1;strokeColor=none;fillColor=none;align=center;verticalAlign=middle;whiteSpace=wrap;rounded=0;dashed=1;fontFamily=Times New Roman;fontStyle=1" parent="1" vertex="1">
          <mxGeometry x="526.71" y="-1040" width="60" height="20" as="geometry" />
        </mxCell>
        <mxCell id="OeQdHstX1ipTwiemMq3e-63" value="&lt;font color=&quot;#ffffff&quot;&gt;sat1&lt;br&gt;&lt;/font&gt;" style="rounded=1;whiteSpace=wrap;html=1;strokeWidth=2;gradientDirection=east;fillColor=#00897B;strokeColor=none;fontColor=#333333;fontFamily=Times New Roman;fontStyle=1;fontSize=18;" parent="1" vertex="1">
          <mxGeometry x="955.7399999999998" y="-1050" width="60" height="40" as="geometry" />
        </mxCell>
        <mxCell id="OeQdHstX1ipTwiemMq3e-64" value="&lt;font color=&quot;#ffffff&quot;&gt;sat2&lt;br&gt;&lt;/font&gt;" style="rounded=1;whiteSpace=wrap;html=1;strokeWidth=2;gradientDirection=east;fillColor=#00897B;strokeColor=none;fontColor=#333333;fontFamily=Times New Roman;fontStyle=1;fontSize=18;" parent="1" vertex="1">
          <mxGeometry x="1026.4899999999998" y="-1050" width="60" height="40" as="geometry" />
        </mxCell>
        <mxCell id="OeQdHstX1ipTwiemMq3e-65" value="&lt;font color=&quot;#ffffff&quot;&gt;sat3&lt;br&gt;&lt;/font&gt;" style="rounded=1;whiteSpace=wrap;html=1;strokeWidth=2;gradientDirection=east;fillColor=#00897B;strokeColor=none;fontColor=#333333;fontFamily=Times New Roman;fontStyle=1;fontSize=18;" parent="1" vertex="1">
          <mxGeometry x="1095.96" y="-1050" width="60" height="40" as="geometry" />
        </mxCell>
        <mxCell id="OeQdHstX1ipTwiemMq3e-66" value="&lt;font color=&quot;#ffffff&quot;&gt;...&lt;br&gt;&lt;/font&gt;" style="rounded=1;whiteSpace=wrap;html=1;strokeWidth=2;gradientDirection=east;fillColor=#00897B;strokeColor=none;fontColor=#333333;fontFamily=Times New Roman;fontStyle=1;fontSize=18;" parent="1" vertex="1">
          <mxGeometry x="1166.96" y="-1050" width="60" height="40" as="geometry" />
        </mxCell>
        <mxCell id="OeQdHstX1ipTwiemMq3e-70" value="&lt;font style=&quot;font-size: 16px&quot;&gt;1127&lt;/font&gt;" style="text;html=1;strokeColor=none;fillColor=none;align=center;verticalAlign=middle;whiteSpace=wrap;rounded=0;dashed=1;fontFamily=Times New Roman;fontStyle=1" parent="1" vertex="1">
          <mxGeometry x="895.6700000000001" y="-1040" width="60" height="20" as="geometry" />
        </mxCell>
        <mxCell id="OeQdHstX1ipTwiemMq3e-72" value="&lt;font color=&quot;#ffffff&quot;&gt;sat1&lt;br&gt;&lt;/font&gt;" style="rounded=1;whiteSpace=wrap;html=1;strokeWidth=2;gradientDirection=east;fillColor=#00897B;strokeColor=none;fontColor=#333333;fontFamily=Times New Roman;fontStyle=1;fontSize=18;" parent="1" vertex="1">
          <mxGeometry x="-134.17000000000007" y="-1050" width="60" height="40" as="geometry" />
        </mxCell>
        <mxCell id="OeQdHstX1ipTwiemMq3e-73" value="&lt;font color=&quot;#ffffff&quot;&gt;sat2&lt;br&gt;&lt;/font&gt;" style="rounded=1;whiteSpace=wrap;html=1;strokeWidth=2;gradientDirection=east;fillColor=#00897B;strokeColor=none;fontColor=#333333;fontFamily=Times New Roman;fontStyle=1;fontSize=18;" parent="1" vertex="1">
          <mxGeometry x="-63.42000000000007" y="-1050" width="60" height="40" as="geometry" />
        </mxCell>
        <mxCell id="OeQdHstX1ipTwiemMq3e-74" value="&lt;font color=&quot;#ffffff&quot;&gt;sat3&lt;br&gt;&lt;/font&gt;" style="rounded=1;whiteSpace=wrap;html=1;strokeWidth=2;gradientDirection=east;fillColor=#00897B;strokeColor=none;fontColor=#333333;fontFamily=Times New Roman;fontStyle=1;fontSize=18;" parent="1" vertex="1">
          <mxGeometry x="6.0499999999999545" y="-1050" width="60" height="40" as="geometry" />
        </mxCell>
        <mxCell id="OeQdHstX1ipTwiemMq3e-75" value="&lt;font color=&quot;#ffffff&quot;&gt;...&lt;br&gt;&lt;/font&gt;" style="rounded=1;whiteSpace=wrap;html=1;strokeWidth=2;gradientDirection=east;fillColor=#00897B;strokeColor=none;fontColor=#333333;fontFamily=Times New Roman;fontStyle=1;fontSize=18;" parent="1" vertex="1">
          <mxGeometry x="77.04999999999995" y="-1050" width="60" height="40" as="geometry" />
        </mxCell>
        <mxCell id="OeQdHstX1ipTwiemMq3e-79" value="&lt;font style=&quot;font-size: 16px&quot;&gt;1077&lt;/font&gt;" style="text;html=1;strokeColor=none;fillColor=none;align=center;verticalAlign=middle;whiteSpace=wrap;rounded=0;dashed=1;fontFamily=Times New Roman;fontStyle=1" parent="1" vertex="1">
          <mxGeometry x="-193.26" y="-1040" width="47.83" height="20" as="geometry" />
        </mxCell>
        <mxCell id="OeQdHstX1ipTwiemMq3e-86" style="edgeStyle=orthogonalEdgeStyle;rounded=0;orthogonalLoop=1;jettySize=auto;html=1;exitX=0.5;exitY=1;exitDx=0;exitDy=0;fontSize=14;strokeWidth=2;" parent="1" source="OeQdHstX1ipTwiemMq3e-70" target="OeQdHstX1ipTwiemMq3e-70" edge="1">
          <mxGeometry relative="1" as="geometry" />
        </mxCell>
        <mxCell id="OeQdHstX1ipTwiemMq3e-87" value="" style="rounded=1;whiteSpace=wrap;html=1;strokeWidth=2;fillColor=#CCE7E5;strokeColor=#00897B;arcSize=8;fontFamily=Times New Roman;fontStyle=1;fontSize=18;" parent="1" vertex="1">
          <mxGeometry x="-269.95" y="-990" width="1539.43" height="80" as="geometry" />
        </mxCell>
        <mxCell id="OeQdHstX1ipTwiemMq3e-88" value="&lt;font style=&quot;font-size: 18px&quot;&gt;epoch_2&lt;/font&gt;" style="text;html=1;strokeColor=none;fillColor=none;align=center;verticalAlign=middle;whiteSpace=wrap;rounded=0;dashed=1;fontFamily=Times New Roman;fontStyle=1" parent="1" vertex="1">
          <mxGeometry x="-264.39999999999975" y="-960" width="69.16" height="20" as="geometry" />
        </mxCell>
        <mxCell id="OeQdHstX1ipTwiemMq3e-89" value="" style="rounded=1;whiteSpace=wrap;html=1;strokeWidth=2;gradientDirection=east;fillColor=#f5f5f5;strokeColor=#666666;fontFamily=Times New Roman;fontStyle=1;fontSize=18;fontColor=#333333;" parent="1" vertex="1">
          <mxGeometry x="167.76" y="-980" width="350" height="60" as="geometry" />
        </mxCell>
        <mxCell id="OeQdHstX1ipTwiemMq3e-90" value="" style="rounded=1;whiteSpace=wrap;html=1;strokeWidth=2;gradientDirection=east;fillColor=#f5f5f5;strokeColor=#666666;fontFamily=Times New Roman;fontStyle=1;fontSize=18;fontColor=#333333;" parent="1" vertex="1">
          <mxGeometry x="530.8000000000002" y="-980" width="350" height="60" as="geometry" />
        </mxCell>
        <mxCell id="OeQdHstX1ipTwiemMq3e-91" value="" style="rounded=1;whiteSpace=wrap;html=1;strokeWidth=2;gradientDirection=east;fillColor=#f5f5f5;strokeColor=#666666;fontFamily=Times New Roman;fontStyle=1;fontSize=18;fontColor=#333333;" parent="1" vertex="1">
          <mxGeometry x="895.6700000000001" y="-980" width="350" height="60" as="geometry" />
        </mxCell>
        <mxCell id="OeQdHstX1ipTwiemMq3e-92" value="&lt;font color=&quot;#ffffff&quot;&gt;sat1&lt;br&gt;&lt;/font&gt;" style="rounded=1;whiteSpace=wrap;html=1;strokeWidth=2;gradientDirection=east;fillColor=#00897B;strokeColor=none;fontColor=#333333;fontFamily=Times New Roman;fontStyle=1;fontSize=18;" parent="1" vertex="1">
          <mxGeometry x="228.8499999999999" y="-970" width="60" height="40" as="geometry" />
        </mxCell>
        <mxCell id="OeQdHstX1ipTwiemMq3e-93" value="&lt;font color=&quot;#ffffff&quot;&gt;sat2&lt;br&gt;&lt;/font&gt;" style="rounded=1;whiteSpace=wrap;html=1;strokeWidth=2;gradientDirection=east;fillColor=#00897B;strokeColor=none;fontColor=#333333;fontFamily=Times New Roman;fontStyle=1;fontSize=18;" parent="1" vertex="1">
          <mxGeometry x="299.5999999999999" y="-970" width="60" height="40" as="geometry" />
        </mxCell>
        <mxCell id="OeQdHstX1ipTwiemMq3e-94" value="&lt;font color=&quot;#ffffff&quot;&gt;sat3&lt;br&gt;&lt;/font&gt;" style="rounded=1;whiteSpace=wrap;html=1;strokeWidth=2;gradientDirection=east;fillColor=#00897B;strokeColor=none;fontColor=#333333;fontFamily=Times New Roman;fontStyle=1;fontSize=18;" parent="1" vertex="1">
          <mxGeometry x="369.06999999999994" y="-970" width="60" height="40" as="geometry" />
        </mxCell>
        <mxCell id="OeQdHstX1ipTwiemMq3e-95" value="&lt;font color=&quot;#ffffff&quot;&gt;...&lt;br&gt;&lt;/font&gt;" style="rounded=1;whiteSpace=wrap;html=1;strokeWidth=2;gradientDirection=east;fillColor=#00897B;strokeColor=none;fontColor=#333333;fontFamily=Times New Roman;fontStyle=1;fontSize=18;" parent="1" vertex="1">
          <mxGeometry x="440.06999999999994" y="-970" width="60" height="40" as="geometry" />
        </mxCell>
        <mxCell id="OeQdHstX1ipTwiemMq3e-96" value="&lt;font style=&quot;font-size: 16px&quot;&gt;1087&lt;/font&gt;" style="text;html=1;strokeColor=none;fillColor=none;align=center;verticalAlign=middle;whiteSpace=wrap;rounded=0;dashed=1;fontFamily=Times New Roman;fontStyle=1" parent="1" vertex="1">
          <mxGeometry x="166.7299999999999" y="-960" width="60" height="20" as="geometry" />
        </mxCell>
        <mxCell id="OeQdHstX1ipTwiemMq3e-97" value="&lt;font color=&quot;#ffffff&quot;&gt;sat1&lt;br&gt;&lt;/font&gt;" style="rounded=1;whiteSpace=wrap;html=1;strokeWidth=2;gradientDirection=east;fillColor=#00897B;strokeColor=none;fontColor=#333333;fontFamily=Times New Roman;fontStyle=1;fontSize=18;" parent="1" vertex="1">
          <mxGeometry x="591.8899999999999" y="-970" width="60" height="40" as="geometry" />
        </mxCell>
        <mxCell id="OeQdHstX1ipTwiemMq3e-98" value="&lt;font color=&quot;#ffffff&quot;&gt;sat2&lt;br&gt;&lt;/font&gt;" style="rounded=1;whiteSpace=wrap;html=1;strokeWidth=2;gradientDirection=east;fillColor=#00897B;strokeColor=none;fontColor=#333333;fontFamily=Times New Roman;fontStyle=1;fontSize=18;" parent="1" vertex="1">
          <mxGeometry x="662.6399999999999" y="-970" width="60" height="40" as="geometry" />
        </mxCell>
        <mxCell id="OeQdHstX1ipTwiemMq3e-99" value="&lt;font color=&quot;#ffffff&quot;&gt;sat3&lt;br&gt;&lt;/font&gt;" style="rounded=1;whiteSpace=wrap;html=1;strokeWidth=2;gradientDirection=east;fillColor=#00897B;strokeColor=none;fontColor=#333333;fontFamily=Times New Roman;fontStyle=1;fontSize=18;" parent="1" vertex="1">
          <mxGeometry x="732.1100000000001" y="-970" width="60" height="40" as="geometry" />
        </mxCell>
        <mxCell id="OeQdHstX1ipTwiemMq3e-100" value="&lt;font color=&quot;#ffffff&quot;&gt;...&lt;br&gt;&lt;/font&gt;" style="rounded=1;whiteSpace=wrap;html=1;strokeWidth=2;gradientDirection=east;fillColor=#00897B;strokeColor=none;fontColor=#333333;fontFamily=Times New Roman;fontStyle=1;fontSize=18;" parent="1" vertex="1">
          <mxGeometry x="803.1100000000001" y="-970" width="60" height="40" as="geometry" />
        </mxCell>
        <mxCell id="OeQdHstX1ipTwiemMq3e-101" value="&lt;font style=&quot;font-size: 16px&quot;&gt;1097&lt;/font&gt;" style="text;html=1;strokeColor=none;fillColor=none;align=center;verticalAlign=middle;whiteSpace=wrap;rounded=0;dashed=1;fontFamily=Times New Roman;fontStyle=1" parent="1" vertex="1">
          <mxGeometry x="526.71" y="-960" width="60" height="20" as="geometry" />
        </mxCell>
        <mxCell id="OeQdHstX1ipTwiemMq3e-102" value="&lt;font color=&quot;#ffffff&quot;&gt;sat1&lt;br&gt;&lt;/font&gt;" style="rounded=1;whiteSpace=wrap;html=1;strokeWidth=2;gradientDirection=east;fillColor=#00897B;strokeColor=none;fontColor=#333333;fontFamily=Times New Roman;fontStyle=1;fontSize=18;" parent="1" vertex="1">
          <mxGeometry x="955.7399999999998" y="-970" width="60" height="40" as="geometry" />
        </mxCell>
        <mxCell id="OeQdHstX1ipTwiemMq3e-103" value="&lt;font color=&quot;#ffffff&quot;&gt;sat2&lt;br&gt;&lt;/font&gt;" style="rounded=1;whiteSpace=wrap;html=1;strokeWidth=2;gradientDirection=east;fillColor=#00897B;strokeColor=none;fontColor=#333333;fontFamily=Times New Roman;fontStyle=1;fontSize=18;" parent="1" vertex="1">
          <mxGeometry x="1026.4899999999998" y="-970" width="60" height="40" as="geometry" />
        </mxCell>
        <mxCell id="OeQdHstX1ipTwiemMq3e-104" value="&lt;font color=&quot;#ffffff&quot;&gt;sat3&lt;br&gt;&lt;/font&gt;" style="rounded=1;whiteSpace=wrap;html=1;strokeWidth=2;gradientDirection=east;fillColor=#00897B;strokeColor=none;fontColor=#333333;fontFamily=Times New Roman;fontStyle=1;fontSize=18;" parent="1" vertex="1">
          <mxGeometry x="1095.96" y="-970" width="60" height="40" as="geometry" />
        </mxCell>
        <mxCell id="OeQdHstX1ipTwiemMq3e-105" value="&lt;font color=&quot;#ffffff&quot;&gt;...&lt;br&gt;&lt;/font&gt;" style="rounded=1;whiteSpace=wrap;html=1;strokeWidth=2;gradientDirection=east;fillColor=#00897B;strokeColor=none;fontColor=#333333;fontFamily=Times New Roman;fontStyle=1;fontSize=18;" parent="1" vertex="1">
          <mxGeometry x="1166.96" y="-970" width="60" height="40" as="geometry" />
        </mxCell>
        <mxCell id="OeQdHstX1ipTwiemMq3e-106" value="&lt;font style=&quot;font-size: 16px&quot;&gt;1127&lt;/font&gt;" style="text;html=1;strokeColor=none;fillColor=none;align=center;verticalAlign=middle;whiteSpace=wrap;rounded=0;dashed=1;fontFamily=Times New Roman;fontStyle=1" parent="1" vertex="1">
          <mxGeometry x="895.6700000000001" y="-960" width="60" height="20" as="geometry" />
        </mxCell>
        <mxCell id="OeQdHstX1ipTwiemMq3e-107" value="" style="rounded=1;whiteSpace=wrap;html=1;strokeWidth=2;gradientDirection=east;fillColor=#f5f5f5;strokeColor=#666666;fontFamily=Times New Roman;fontStyle=1;fontSize=18;fontColor=#333333;" parent="1" vertex="1">
          <mxGeometry x="-195.26" y="-980" width="349.74" height="60" as="geometry" />
        </mxCell>
        <mxCell id="OeQdHstX1ipTwiemMq3e-108" value="&lt;font color=&quot;#ffffff&quot;&gt;sat1&lt;br&gt;&lt;/font&gt;" style="rounded=1;whiteSpace=wrap;html=1;strokeWidth=2;gradientDirection=east;fillColor=#00897B;strokeColor=none;fontColor=#333333;fontFamily=Times New Roman;fontStyle=1;fontSize=18;" parent="1" vertex="1">
          <mxGeometry x="-134.17000000000007" y="-970" width="60" height="40" as="geometry" />
        </mxCell>
        <mxCell id="OeQdHstX1ipTwiemMq3e-109" value="&lt;font color=&quot;#ffffff&quot;&gt;sat2&lt;br&gt;&lt;/font&gt;" style="rounded=1;whiteSpace=wrap;html=1;strokeWidth=2;gradientDirection=east;fillColor=#00897B;strokeColor=none;fontColor=#333333;fontFamily=Times New Roman;fontStyle=1;fontSize=18;" parent="1" vertex="1">
          <mxGeometry x="-63.42000000000007" y="-970" width="60" height="40" as="geometry" />
        </mxCell>
        <mxCell id="OeQdHstX1ipTwiemMq3e-110" value="&lt;font color=&quot;#ffffff&quot;&gt;sat3&lt;br&gt;&lt;/font&gt;" style="rounded=1;whiteSpace=wrap;html=1;strokeWidth=2;gradientDirection=east;fillColor=#00897B;strokeColor=none;fontColor=#333333;fontFamily=Times New Roman;fontStyle=1;fontSize=18;" parent="1" vertex="1">
          <mxGeometry x="6.0499999999999545" y="-970" width="60" height="40" as="geometry" />
        </mxCell>
        <mxCell id="OeQdHstX1ipTwiemMq3e-111" value="&lt;font color=&quot;#ffffff&quot;&gt;...&lt;br&gt;&lt;/font&gt;" style="rounded=1;whiteSpace=wrap;html=1;strokeWidth=2;gradientDirection=east;fillColor=#00897B;strokeColor=none;fontColor=#333333;fontFamily=Times New Roman;fontStyle=1;fontSize=18;" parent="1" vertex="1">
          <mxGeometry x="77.04999999999995" y="-970" width="60" height="40" as="geometry" />
        </mxCell>
        <mxCell id="OeQdHstX1ipTwiemMq3e-112" value="&lt;font style=&quot;font-size: 16px&quot;&gt;1077&lt;/font&gt;" style="text;html=1;strokeColor=none;fillColor=none;align=center;verticalAlign=middle;whiteSpace=wrap;rounded=0;dashed=1;fontFamily=Times New Roman;fontStyle=1" parent="1" vertex="1">
          <mxGeometry x="-193.26" y="-960" width="47.83" height="20" as="geometry" />
        </mxCell>
        <mxCell id="OeQdHstX1ipTwiemMq3e-113" style="edgeStyle=orthogonalEdgeStyle;rounded=0;orthogonalLoop=1;jettySize=auto;html=1;exitX=0.5;exitY=1;exitDx=0;exitDy=0;fontSize=14;strokeWidth=2;" parent="1" source="OeQdHstX1ipTwiemMq3e-106" target="OeQdHstX1ipTwiemMq3e-106" edge="1">
          <mxGeometry relative="1" as="geometry" />
        </mxCell>
        <mxCell id="OeQdHstX1ipTwiemMq3e-114" value="" style="rounded=1;whiteSpace=wrap;html=1;strokeWidth=2;fillColor=#CCE7E5;strokeColor=#00897B;arcSize=8;fontFamily=Times New Roman;fontStyle=1;fontSize=18;" parent="1" vertex="1">
          <mxGeometry x="-269.95" y="-910" width="1539.43" height="80" as="geometry" />
        </mxCell>
        <mxCell id="OeQdHstX1ipTwiemMq3e-115" value="&lt;font style=&quot;font-size: 18px&quot;&gt;epoch...&lt;/font&gt;" style="text;html=1;strokeColor=none;fillColor=none;align=center;verticalAlign=middle;whiteSpace=wrap;rounded=0;dashed=1;fontFamily=Times New Roman;fontStyle=1" parent="1" vertex="1">
          <mxGeometry x="-264.39999999999975" y="-880" width="69.16" height="20" as="geometry" />
        </mxCell>
        <mxCell id="OeQdHstX1ipTwiemMq3e-116" value="" style="rounded=1;whiteSpace=wrap;html=1;strokeWidth=2;gradientDirection=east;fillColor=#f5f5f5;strokeColor=#666666;fontFamily=Times New Roman;fontStyle=1;fontSize=18;fontColor=#333333;" parent="1" vertex="1">
          <mxGeometry x="167.76" y="-900" width="350" height="60" as="geometry" />
        </mxCell>
        <mxCell id="OeQdHstX1ipTwiemMq3e-117" value="" style="rounded=1;whiteSpace=wrap;html=1;strokeWidth=2;gradientDirection=east;fillColor=#f5f5f5;strokeColor=#666666;fontFamily=Times New Roman;fontStyle=1;fontSize=18;fontColor=#333333;" parent="1" vertex="1">
          <mxGeometry x="530.8000000000002" y="-900" width="350" height="60" as="geometry" />
        </mxCell>
        <mxCell id="OeQdHstX1ipTwiemMq3e-118" value="" style="rounded=1;whiteSpace=wrap;html=1;strokeWidth=2;gradientDirection=east;fillColor=#f5f5f5;strokeColor=#666666;fontFamily=Times New Roman;fontStyle=1;fontSize=18;fontColor=#333333;" parent="1" vertex="1">
          <mxGeometry x="895.6700000000001" y="-900" width="350" height="60" as="geometry" />
        </mxCell>
        <mxCell id="OeQdHstX1ipTwiemMq3e-119" value="&lt;font color=&quot;#ffffff&quot;&gt;...&lt;br&gt;&lt;/font&gt;" style="rounded=1;whiteSpace=wrap;html=1;strokeWidth=2;gradientDirection=east;fillColor=#00897B;strokeColor=none;fontColor=#333333;fontFamily=Times New Roman;fontStyle=1;fontSize=18;" parent="1" vertex="1">
          <mxGeometry x="228.8499999999999" y="-890" width="60" height="40" as="geometry" />
        </mxCell>
        <mxCell id="OeQdHstX1ipTwiemMq3e-120" value="&lt;font color=&quot;#ffffff&quot;&gt;...&lt;br&gt;&lt;/font&gt;" style="rounded=1;whiteSpace=wrap;html=1;strokeWidth=2;gradientDirection=east;fillColor=#00897B;strokeColor=none;fontColor=#333333;fontFamily=Times New Roman;fontStyle=1;fontSize=18;" parent="1" vertex="1">
          <mxGeometry x="299.5999999999999" y="-890" width="60" height="40" as="geometry" />
        </mxCell>
        <mxCell id="OeQdHstX1ipTwiemMq3e-121" value="&lt;font color=&quot;#ffffff&quot;&gt;...&lt;br&gt;&lt;/font&gt;" style="rounded=1;whiteSpace=wrap;html=1;strokeWidth=2;gradientDirection=east;fillColor=#00897B;strokeColor=none;fontColor=#333333;fontFamily=Times New Roman;fontStyle=1;fontSize=18;" parent="1" vertex="1">
          <mxGeometry x="369.06999999999994" y="-890" width="60" height="40" as="geometry" />
        </mxCell>
        <mxCell id="OeQdHstX1ipTwiemMq3e-122" value="&lt;font color=&quot;#ffffff&quot;&gt;...&lt;br&gt;&lt;/font&gt;" style="rounded=1;whiteSpace=wrap;html=1;strokeWidth=2;gradientDirection=east;fillColor=#00897B;strokeColor=none;fontColor=#333333;fontFamily=Times New Roman;fontStyle=1;fontSize=18;" parent="1" vertex="1">
          <mxGeometry x="440.06999999999994" y="-890" width="60" height="40" as="geometry" />
        </mxCell>
        <mxCell id="OeQdHstX1ipTwiemMq3e-123" value="&lt;font style=&quot;font-size: 16px&quot;&gt;1087&lt;/font&gt;" style="text;html=1;strokeColor=none;fillColor=none;align=center;verticalAlign=middle;whiteSpace=wrap;rounded=0;dashed=1;fontFamily=Times New Roman;fontStyle=1" parent="1" vertex="1">
          <mxGeometry x="166.7299999999999" y="-880" width="60" height="20" as="geometry" />
        </mxCell>
        <mxCell id="OeQdHstX1ipTwiemMq3e-124" value="&lt;font color=&quot;#ffffff&quot;&gt;...&lt;br&gt;&lt;/font&gt;" style="rounded=1;whiteSpace=wrap;html=1;strokeWidth=2;gradientDirection=east;fillColor=#00897B;strokeColor=none;fontColor=#333333;fontFamily=Times New Roman;fontStyle=1;fontSize=18;" parent="1" vertex="1">
          <mxGeometry x="591.8899999999999" y="-890" width="60" height="40" as="geometry" />
        </mxCell>
        <mxCell id="OeQdHstX1ipTwiemMq3e-125" value="&lt;font color=&quot;#ffffff&quot;&gt;...&lt;br&gt;&lt;/font&gt;" style="rounded=1;whiteSpace=wrap;html=1;strokeWidth=2;gradientDirection=east;fillColor=#00897B;strokeColor=none;fontColor=#333333;fontFamily=Times New Roman;fontStyle=1;fontSize=18;" parent="1" vertex="1">
          <mxGeometry x="662.6399999999999" y="-890" width="60" height="40" as="geometry" />
        </mxCell>
        <mxCell id="OeQdHstX1ipTwiemMq3e-126" value="&lt;font color=&quot;#ffffff&quot;&gt;...&lt;br&gt;&lt;/font&gt;" style="rounded=1;whiteSpace=wrap;html=1;strokeWidth=2;gradientDirection=east;fillColor=#00897B;strokeColor=none;fontColor=#333333;fontFamily=Times New Roman;fontStyle=1;fontSize=18;" parent="1" vertex="1">
          <mxGeometry x="732.1100000000001" y="-890" width="60" height="40" as="geometry" />
        </mxCell>
        <mxCell id="OeQdHstX1ipTwiemMq3e-127" value="&lt;font color=&quot;#ffffff&quot;&gt;...&lt;br&gt;&lt;/font&gt;" style="rounded=1;whiteSpace=wrap;html=1;strokeWidth=2;gradientDirection=east;fillColor=#00897B;strokeColor=none;fontColor=#333333;fontFamily=Times New Roman;fontStyle=1;fontSize=18;" parent="1" vertex="1">
          <mxGeometry x="803.1100000000001" y="-890" width="60" height="40" as="geometry" />
        </mxCell>
        <mxCell id="OeQdHstX1ipTwiemMq3e-128" value="&lt;font style=&quot;font-size: 16px&quot;&gt;1097&lt;/font&gt;" style="text;html=1;strokeColor=none;fillColor=none;align=center;verticalAlign=middle;whiteSpace=wrap;rounded=0;dashed=1;fontFamily=Times New Roman;fontStyle=1" parent="1" vertex="1">
          <mxGeometry x="526.71" y="-880" width="60" height="20" as="geometry" />
        </mxCell>
        <mxCell id="OeQdHstX1ipTwiemMq3e-129" value="&lt;font color=&quot;#ffffff&quot;&gt;sat1&lt;br&gt;&lt;/font&gt;" style="rounded=1;whiteSpace=wrap;html=1;strokeWidth=2;gradientDirection=east;fillColor=#00897B;strokeColor=none;fontColor=#333333;fontFamily=Times New Roman;fontStyle=1;fontSize=18;" parent="1" vertex="1">
          <mxGeometry x="955.7399999999998" y="-890" width="60" height="40" as="geometry" />
        </mxCell>
        <mxCell id="OeQdHstX1ipTwiemMq3e-130" value="&lt;font color=&quot;#ffffff&quot;&gt;sat2&lt;br&gt;&lt;/font&gt;" style="rounded=1;whiteSpace=wrap;html=1;strokeWidth=2;gradientDirection=east;fillColor=#00897B;strokeColor=none;fontColor=#333333;fontFamily=Times New Roman;fontStyle=1;fontSize=18;" parent="1" vertex="1">
          <mxGeometry x="1026.4899999999998" y="-890" width="60" height="40" as="geometry" />
        </mxCell>
        <mxCell id="OeQdHstX1ipTwiemMq3e-131" value="&lt;font color=&quot;#ffffff&quot;&gt;sat3&lt;br&gt;&lt;/font&gt;" style="rounded=1;whiteSpace=wrap;html=1;strokeWidth=2;gradientDirection=east;fillColor=#00897B;strokeColor=none;fontColor=#333333;fontFamily=Times New Roman;fontStyle=1;fontSize=18;" parent="1" vertex="1">
          <mxGeometry x="1095.96" y="-890" width="60" height="40" as="geometry" />
        </mxCell>
        <mxCell id="OeQdHstX1ipTwiemMq3e-132" value="&lt;font color=&quot;#ffffff&quot;&gt;...&lt;br&gt;&lt;/font&gt;" style="rounded=1;whiteSpace=wrap;html=1;strokeWidth=2;gradientDirection=east;fillColor=#00897B;strokeColor=none;fontColor=#333333;fontFamily=Times New Roman;fontStyle=1;fontSize=18;" parent="1" vertex="1">
          <mxGeometry x="1166.96" y="-890" width="60" height="40" as="geometry" />
        </mxCell>
        <mxCell id="OeQdHstX1ipTwiemMq3e-133" value="&lt;font style=&quot;font-size: 16px&quot;&gt;1127&lt;/font&gt;" style="text;html=1;strokeColor=none;fillColor=none;align=center;verticalAlign=middle;whiteSpace=wrap;rounded=0;dashed=1;fontFamily=Times New Roman;fontStyle=1" parent="1" vertex="1">
          <mxGeometry x="895.6700000000001" y="-880" width="60" height="20" as="geometry" />
        </mxCell>
        <mxCell id="OeQdHstX1ipTwiemMq3e-134" value="" style="rounded=1;whiteSpace=wrap;html=1;strokeWidth=2;gradientDirection=east;fillColor=#f5f5f5;strokeColor=#666666;fontFamily=Times New Roman;fontStyle=1;fontSize=18;fontColor=#333333;" parent="1" vertex="1">
          <mxGeometry x="-195.26" y="-900" width="349.74" height="60" as="geometry" />
        </mxCell>
        <mxCell id="OeQdHstX1ipTwiemMq3e-135" value="&lt;font color=&quot;#ffffff&quot;&gt;...&lt;br&gt;&lt;/font&gt;" style="rounded=1;whiteSpace=wrap;html=1;strokeWidth=2;gradientDirection=east;fillColor=#00897B;strokeColor=none;fontColor=#333333;fontFamily=Times New Roman;fontStyle=1;fontSize=18;" parent="1" vertex="1">
          <mxGeometry x="-134.17000000000007" y="-890" width="60" height="40" as="geometry" />
        </mxCell>
        <mxCell id="OeQdHstX1ipTwiemMq3e-136" value="&lt;font color=&quot;#ffffff&quot;&gt;...&lt;br&gt;&lt;/font&gt;" style="rounded=1;whiteSpace=wrap;html=1;strokeWidth=2;gradientDirection=east;fillColor=#00897B;strokeColor=none;fontColor=#333333;fontFamily=Times New Roman;fontStyle=1;fontSize=18;" parent="1" vertex="1">
          <mxGeometry x="-63.42000000000007" y="-890" width="60" height="40" as="geometry" />
        </mxCell>
        <mxCell id="OeQdHstX1ipTwiemMq3e-137" value="&lt;font color=&quot;#ffffff&quot;&gt;...&lt;br&gt;&lt;/font&gt;" style="rounded=1;whiteSpace=wrap;html=1;strokeWidth=2;gradientDirection=east;fillColor=#00897B;strokeColor=none;fontColor=#333333;fontFamily=Times New Roman;fontStyle=1;fontSize=18;" parent="1" vertex="1">
          <mxGeometry x="6.0499999999999545" y="-890" width="60" height="40" as="geometry" />
        </mxCell>
        <mxCell id="OeQdHstX1ipTwiemMq3e-138" value="&lt;font color=&quot;#ffffff&quot;&gt;...&lt;br&gt;&lt;/font&gt;" style="rounded=1;whiteSpace=wrap;html=1;strokeWidth=2;gradientDirection=east;fillColor=#00897B;strokeColor=none;fontColor=#333333;fontFamily=Times New Roman;fontStyle=1;fontSize=18;" parent="1" vertex="1">
          <mxGeometry x="77.04999999999995" y="-890" width="60" height="40" as="geometry" />
        </mxCell>
        <mxCell id="OeQdHstX1ipTwiemMq3e-139" value="&lt;font style=&quot;font-size: 16px&quot;&gt;1077&lt;/font&gt;" style="text;html=1;strokeColor=none;fillColor=none;align=center;verticalAlign=middle;whiteSpace=wrap;rounded=0;dashed=1;fontFamily=Times New Roman;fontStyle=1" parent="1" vertex="1">
          <mxGeometry x="-193.26" y="-880" width="47.83" height="20" as="geometry" />
        </mxCell>
        <mxCell id="OeQdHstX1ipTwiemMq3e-140" style="edgeStyle=orthogonalEdgeStyle;rounded=0;orthogonalLoop=1;jettySize=auto;html=1;exitX=0.5;exitY=1;exitDx=0;exitDy=0;fontSize=14;strokeWidth=2;" parent="1" source="OeQdHstX1ipTwiemMq3e-133" target="OeQdHstX1ipTwiemMq3e-133" edge="1">
          <mxGeometry relative="1" as="geometry" />
        </mxCell>
        <mxCell id="OeQdHstX1ipTwiemMq3e-141" value="" style="rounded=1;whiteSpace=wrap;html=1;strokeWidth=2;fillColor=#CCE7E5;strokeColor=#00897B;arcSize=8;fontFamily=Times New Roman;fontStyle=1;fontSize=18;" parent="1" vertex="1">
          <mxGeometry x="-269.95" y="-830" width="1539.43" height="80" as="geometry" />
        </mxCell>
        <mxCell id="OeQdHstX1ipTwiemMq3e-142" value="&lt;font style=&quot;font-size: 18px&quot;&gt;epoch_n&lt;/font&gt;" style="text;html=1;strokeColor=none;fillColor=none;align=center;verticalAlign=middle;whiteSpace=wrap;rounded=0;dashed=1;fontFamily=Times New Roman;fontStyle=1" parent="1" vertex="1">
          <mxGeometry x="-264.39999999999975" y="-800" width="69.16" height="20" as="geometry" />
        </mxCell>
        <mxCell id="OeQdHstX1ipTwiemMq3e-143" value="" style="rounded=1;whiteSpace=wrap;html=1;strokeWidth=2;gradientDirection=east;fillColor=#f5f5f5;strokeColor=#666666;fontFamily=Times New Roman;fontStyle=1;fontSize=18;fontColor=#333333;" parent="1" vertex="1">
          <mxGeometry x="167.76" y="-820" width="350" height="60" as="geometry" />
        </mxCell>
        <mxCell id="OeQdHstX1ipTwiemMq3e-144" value="" style="rounded=1;whiteSpace=wrap;html=1;strokeWidth=2;gradientDirection=east;fillColor=#f5f5f5;strokeColor=#666666;fontFamily=Times New Roman;fontStyle=1;fontSize=18;fontColor=#333333;" parent="1" vertex="1">
          <mxGeometry x="530.8000000000002" y="-820" width="350" height="60" as="geometry" />
        </mxCell>
        <mxCell id="OeQdHstX1ipTwiemMq3e-145" value="" style="rounded=1;whiteSpace=wrap;html=1;strokeWidth=2;gradientDirection=east;fillColor=#f5f5f5;strokeColor=#666666;fontFamily=Times New Roman;fontStyle=1;fontSize=18;fontColor=#333333;" parent="1" vertex="1">
          <mxGeometry x="895.6700000000001" y="-820" width="350" height="60" as="geometry" />
        </mxCell>
        <mxCell id="OeQdHstX1ipTwiemMq3e-146" value="&lt;font color=&quot;#ffffff&quot;&gt;sat1&lt;br&gt;&lt;/font&gt;" style="rounded=1;whiteSpace=wrap;html=1;strokeWidth=2;gradientDirection=east;fillColor=#00897B;strokeColor=none;fontColor=#333333;fontFamily=Times New Roman;fontStyle=1;fontSize=18;" parent="1" vertex="1">
          <mxGeometry x="228.8499999999999" y="-810" width="60" height="40" as="geometry" />
        </mxCell>
        <mxCell id="OeQdHstX1ipTwiemMq3e-147" value="&lt;font color=&quot;#ffffff&quot;&gt;sat2&lt;br&gt;&lt;/font&gt;" style="rounded=1;whiteSpace=wrap;html=1;strokeWidth=2;gradientDirection=east;fillColor=#00897B;strokeColor=none;fontColor=#333333;fontFamily=Times New Roman;fontStyle=1;fontSize=18;" parent="1" vertex="1">
          <mxGeometry x="299.5999999999999" y="-810" width="60" height="40" as="geometry" />
        </mxCell>
        <mxCell id="OeQdHstX1ipTwiemMq3e-148" value="&lt;font color=&quot;#ffffff&quot;&gt;...&lt;br&gt;&lt;/font&gt;" style="rounded=1;whiteSpace=wrap;html=1;strokeWidth=2;gradientDirection=east;fillColor=#00897B;strokeColor=none;fontColor=#333333;fontFamily=Times New Roman;fontStyle=1;fontSize=18;" parent="1" vertex="1">
          <mxGeometry x="369.06999999999994" y="-810" width="60" height="40" as="geometry" />
        </mxCell>
        <mxCell id="OeQdHstX1ipTwiemMq3e-149" value="&lt;span style=&quot;color: rgb(255 , 255 , 255)&quot;&gt;satn&lt;/span&gt;&lt;sub style=&quot;color: rgb(255 , 255 , 255)&quot;&gt;2&lt;/sub&gt;&lt;font color=&quot;#ffffff&quot;&gt;&lt;br&gt;&lt;/font&gt;" style="rounded=1;whiteSpace=wrap;html=1;strokeWidth=2;gradientDirection=east;fillColor=#00897B;strokeColor=none;fontColor=#333333;fontFamily=Times New Roman;fontStyle=1;fontSize=18;" parent="1" vertex="1">
          <mxGeometry x="440.06999999999994" y="-810" width="60" height="40" as="geometry" />
        </mxCell>
        <mxCell id="OeQdHstX1ipTwiemMq3e-150" value="&lt;font style=&quot;font-size: 16px&quot;&gt;1087&lt;/font&gt;" style="text;html=1;strokeColor=none;fillColor=none;align=center;verticalAlign=middle;whiteSpace=wrap;rounded=0;dashed=1;fontFamily=Times New Roman;fontStyle=1" parent="1" vertex="1">
          <mxGeometry x="166.7299999999999" y="-800" width="60" height="20" as="geometry" />
        </mxCell>
        <mxCell id="OeQdHstX1ipTwiemMq3e-151" value="&lt;font color=&quot;#ffffff&quot;&gt;sat1&lt;br&gt;&lt;/font&gt;" style="rounded=1;whiteSpace=wrap;html=1;strokeWidth=2;gradientDirection=east;fillColor=#00897B;strokeColor=none;fontColor=#333333;fontFamily=Times New Roman;fontStyle=1;fontSize=18;" parent="1" vertex="1">
          <mxGeometry x="591.8899999999999" y="-810" width="60" height="40" as="geometry" />
        </mxCell>
        <mxCell id="OeQdHstX1ipTwiemMq3e-152" value="&lt;font color=&quot;#ffffff&quot;&gt;sat2&lt;br&gt;&lt;/font&gt;" style="rounded=1;whiteSpace=wrap;html=1;strokeWidth=2;gradientDirection=east;fillColor=#00897B;strokeColor=none;fontColor=#333333;fontFamily=Times New Roman;fontStyle=1;fontSize=18;" parent="1" vertex="1">
          <mxGeometry x="662.6399999999999" y="-810" width="60" height="40" as="geometry" />
        </mxCell>
        <mxCell id="OeQdHstX1ipTwiemMq3e-153" value="&lt;font color=&quot;#ffffff&quot;&gt;...&lt;br&gt;&lt;/font&gt;" style="rounded=1;whiteSpace=wrap;html=1;strokeWidth=2;gradientDirection=east;fillColor=#00897B;strokeColor=none;fontColor=#333333;fontFamily=Times New Roman;fontStyle=1;fontSize=18;" parent="1" vertex="1">
          <mxGeometry x="732.1100000000001" y="-810" width="60" height="40" as="geometry" />
        </mxCell>
        <mxCell id="OeQdHstX1ipTwiemMq3e-154" value="&lt;span style=&quot;color: rgb(255 , 255 , 255)&quot;&gt;satn&lt;/span&gt;&lt;sub style=&quot;color: rgb(255 , 255 , 255)&quot;&gt;3&lt;/sub&gt;&lt;font color=&quot;#ffffff&quot;&gt;&lt;br&gt;&lt;/font&gt;" style="rounded=1;whiteSpace=wrap;html=1;strokeWidth=2;gradientDirection=east;fillColor=#00897B;strokeColor=none;fontColor=#333333;fontFamily=Times New Roman;fontStyle=1;fontSize=18;" parent="1" vertex="1">
          <mxGeometry x="803.1100000000001" y="-810" width="60" height="40" as="geometry" />
        </mxCell>
        <mxCell id="OeQdHstX1ipTwiemMq3e-155" value="&lt;font style=&quot;font-size: 16px&quot;&gt;1097&lt;/font&gt;" style="text;html=1;strokeColor=none;fillColor=none;align=center;verticalAlign=middle;whiteSpace=wrap;rounded=0;dashed=1;fontFamily=Times New Roman;fontStyle=1" parent="1" vertex="1">
          <mxGeometry x="526.71" y="-800" width="60" height="20" as="geometry" />
        </mxCell>
        <mxCell id="OeQdHstX1ipTwiemMq3e-156" value="&lt;font color=&quot;#ffffff&quot;&gt;sat1&lt;br&gt;&lt;/font&gt;" style="rounded=1;whiteSpace=wrap;html=1;strokeWidth=2;gradientDirection=east;fillColor=#00897B;strokeColor=none;fontColor=#333333;fontFamily=Times New Roman;fontStyle=1;fontSize=18;" parent="1" vertex="1">
          <mxGeometry x="955.7399999999998" y="-810" width="60" height="40" as="geometry" />
        </mxCell>
        <mxCell id="OeQdHstX1ipTwiemMq3e-157" value="&lt;font color=&quot;#ffffff&quot;&gt;sat2&lt;br&gt;&lt;/font&gt;" style="rounded=1;whiteSpace=wrap;html=1;strokeWidth=2;gradientDirection=east;fillColor=#00897B;strokeColor=none;fontColor=#333333;fontFamily=Times New Roman;fontStyle=1;fontSize=18;" parent="1" vertex="1">
          <mxGeometry x="1026.4899999999998" y="-810" width="60" height="40" as="geometry" />
        </mxCell>
        <mxCell id="OeQdHstX1ipTwiemMq3e-158" value="&lt;font color=&quot;#ffffff&quot;&gt;...&lt;br&gt;&lt;/font&gt;" style="rounded=1;whiteSpace=wrap;html=1;strokeWidth=2;gradientDirection=east;fillColor=#00897B;strokeColor=none;fontColor=#333333;fontFamily=Times New Roman;fontStyle=1;fontSize=18;" parent="1" vertex="1">
          <mxGeometry x="1095.96" y="-810" width="60" height="40" as="geometry" />
        </mxCell>
        <mxCell id="OeQdHstX1ipTwiemMq3e-159" value="&lt;span style=&quot;color: rgb(255 , 255 , 255)&quot;&gt;satn&lt;/span&gt;&lt;sub style=&quot;color: rgb(255 , 255 , 255)&quot;&gt;4&lt;/sub&gt;&lt;font color=&quot;#ffffff&quot;&gt;&lt;br&gt;&lt;/font&gt;" style="rounded=1;whiteSpace=wrap;html=1;strokeWidth=2;gradientDirection=east;fillColor=#00897B;strokeColor=none;fontColor=#333333;fontFamily=Times New Roman;fontStyle=1;fontSize=18;" parent="1" vertex="1">
          <mxGeometry x="1166.96" y="-810" width="60" height="40" as="geometry" />
        </mxCell>
        <mxCell id="OeQdHstX1ipTwiemMq3e-160" value="&lt;font style=&quot;font-size: 16px&quot;&gt;1127&lt;/font&gt;" style="text;html=1;strokeColor=none;fillColor=none;align=center;verticalAlign=middle;whiteSpace=wrap;rounded=0;dashed=1;fontFamily=Times New Roman;fontStyle=1" parent="1" vertex="1">
          <mxGeometry x="895.6700000000001" y="-800" width="60" height="20" as="geometry" />
        </mxCell>
        <mxCell id="OeQdHstX1ipTwiemMq3e-161" value="" style="rounded=1;whiteSpace=wrap;html=1;strokeWidth=2;gradientDirection=east;fillColor=#f5f5f5;strokeColor=#666666;fontFamily=Times New Roman;fontStyle=1;fontSize=18;fontColor=#333333;" parent="1" vertex="1">
          <mxGeometry x="-195.26" y="-820" width="349.74" height="60" as="geometry" />
        </mxCell>
        <mxCell id="OeQdHstX1ipTwiemMq3e-162" value="&lt;font color=&quot;#ffffff&quot;&gt;sat1&lt;br&gt;&lt;/font&gt;" style="rounded=1;whiteSpace=wrap;html=1;strokeWidth=2;gradientDirection=east;fillColor=#00897B;strokeColor=none;fontColor=#333333;fontFamily=Times New Roman;fontStyle=1;fontSize=18;" parent="1" vertex="1">
          <mxGeometry x="-134.17000000000007" y="-810" width="60" height="40" as="geometry" />
        </mxCell>
        <mxCell id="OeQdHstX1ipTwiemMq3e-163" value="&lt;font color=&quot;#ffffff&quot;&gt;sat2&lt;br&gt;&lt;/font&gt;" style="rounded=1;whiteSpace=wrap;html=1;strokeWidth=2;gradientDirection=east;fillColor=#00897B;strokeColor=none;fontColor=#333333;fontFamily=Times New Roman;fontStyle=1;fontSize=18;" parent="1" vertex="1">
          <mxGeometry x="-63.42000000000007" y="-810" width="60" height="40" as="geometry" />
        </mxCell>
        <mxCell id="OeQdHstX1ipTwiemMq3e-164" value="&lt;font color=&quot;#ffffff&quot;&gt;...&lt;br&gt;&lt;/font&gt;" style="rounded=1;whiteSpace=wrap;html=1;strokeWidth=2;gradientDirection=east;fillColor=#00897B;strokeColor=none;fontColor=#333333;fontFamily=Times New Roman;fontStyle=1;fontSize=18;" parent="1" vertex="1">
          <mxGeometry x="6.0499999999999545" y="-810" width="60" height="40" as="geometry" />
        </mxCell>
        <mxCell id="OeQdHstX1ipTwiemMq3e-165" value="&lt;span style=&quot;color: rgb(255 , 255 , 255)&quot;&gt;satn&lt;sub&gt;1&lt;/sub&gt;&lt;/span&gt;&lt;font color=&quot;#ffffff&quot;&gt;&lt;br&gt;&lt;/font&gt;" style="rounded=1;whiteSpace=wrap;html=1;strokeWidth=2;gradientDirection=east;fillColor=#00897B;strokeColor=none;fontColor=#333333;fontFamily=Times New Roman;fontStyle=1;fontSize=18;" parent="1" vertex="1">
          <mxGeometry x="77.04999999999995" y="-810" width="60" height="40" as="geometry" />
        </mxCell>
        <mxCell id="OeQdHstX1ipTwiemMq3e-166" value="&lt;font style=&quot;font-size: 16px&quot;&gt;1077&lt;/font&gt;" style="text;html=1;strokeColor=none;fillColor=none;align=center;verticalAlign=middle;whiteSpace=wrap;rounded=0;dashed=1;fontFamily=Times New Roman;fontStyle=1" parent="1" vertex="1">
          <mxGeometry x="-193.26" y="-800" width="47.83" height="20" as="geometry" />
        </mxCell>
        <mxCell id="OeQdHstX1ipTwiemMq3e-167" style="edgeStyle=orthogonalEdgeStyle;rounded=0;orthogonalLoop=1;jettySize=auto;html=1;exitX=0.5;exitY=1;exitDx=0;exitDy=0;fontSize=14;strokeWidth=2;" parent="1" source="OeQdHstX1ipTwiemMq3e-160" target="OeQdHstX1ipTwiemMq3e-160" edge="1">
          <mxGeometry relative="1" as="geometry" />
        </mxCell>
        <mxCell id="OeQdHstX1ipTwiemMq3e-190" value="" style="rounded=1;whiteSpace=wrap;html=1;strokeWidth=2;fillColor=#CCE7E5;strokeColor=#00897B;arcSize=8;fontFamily=Times New Roman;fontStyle=1;fontSize=18;" parent="1" vertex="1">
          <mxGeometry x="-187.89999999999998" y="-374" width="398.79" height="60" as="geometry" />
        </mxCell>
        <mxCell id="OeQdHstX1ipTwiemMq3e-191" value="&lt;font style=&quot;font-size: 18px&quot;&gt;rover epoch&lt;/font&gt;" style="text;html=1;strokeColor=none;fillColor=none;align=center;verticalAlign=middle;whiteSpace=wrap;rounded=0;dashed=1;fontFamily=Times New Roman;fontStyle=1" parent="1" vertex="1">
          <mxGeometry x="-37.10000000000002" y="-354" width="97.2" height="20" as="geometry" />
        </mxCell>
        <mxCell id="OeQdHstX1ipTwiemMq3e-192" value="" style="rounded=1;whiteSpace=wrap;html=1;strokeWidth=2;fillColor=#CCE7E5;strokeColor=#00897B;arcSize=8;fontFamily=Times New Roman;fontStyle=1;fontSize=18;" parent="1" vertex="1">
          <mxGeometry x="277.09000000000003" y="-374" width="398.79" height="60" as="geometry" />
        </mxCell>
        <mxCell id="OeQdHstX1ipTwiemMq3e-193" value="&lt;font style=&quot;font-size: 18px&quot;&gt;base epoch&lt;/font&gt;" style="text;html=1;strokeColor=none;fillColor=none;align=center;verticalAlign=middle;whiteSpace=wrap;rounded=0;dashed=1;fontFamily=Times New Roman;fontStyle=1" parent="1" vertex="1">
          <mxGeometry x="427.89" y="-354" width="97.2" height="20" as="geometry" />
        </mxCell>
        <mxCell id="OeQdHstX1ipTwiemMq3e-195" value="1077" style="rounded=1;whiteSpace=wrap;html=1;strokeWidth=2;gradientDirection=east;fillColor=#f8cecc;strokeColor=#b85450;fontFamily=Times New Roman;fontStyle=1;fontSize=18;" parent="1" vertex="1">
          <mxGeometry x="-171.51999999999998" y="-364" width="82.65" height="40" as="geometry" />
        </mxCell>
        <mxCell id="OeQdHstX1ipTwiemMq3e-198" style="edgeStyle=orthogonalEdgeStyle;rounded=1;orthogonalLoop=1;jettySize=auto;html=1;entryX=1;entryY=0.5;entryDx=0;entryDy=0;fontSize=16;fontColor=#000000;strokeWidth=2;fillColor=#dae8fc;strokeColor=#6c8ebf;" parent="1" target="OeQdHstX1ipTwiemMq3e-192" edge="1">
          <mxGeometry relative="1" as="geometry">
            <mxPoint x="868.48" y="-344" as="sourcePoint" />
          </mxGeometry>
        </mxCell>
        <mxCell id="OeQdHstX1ipTwiemMq3e-199" value="&lt;span style=&quot;font-size: 20px&quot;&gt;Base Station Data&lt;/span&gt;" style="text;html=1;strokeColor=none;fillColor=none;align=center;verticalAlign=middle;whiteSpace=wrap;rounded=0;dashed=1;fontFamily=Times New Roman;fontStyle=1" parent="1" vertex="1">
          <mxGeometry x="879.72" y="-354" width="171.82" height="20" as="geometry" />
        </mxCell>
        <mxCell id="OeQdHstX1ipTwiemMq3e-202" value="&lt;span style=&quot;font-weight: normal&quot;&gt;&lt;font style=&quot;font-size: 16px&quot;&gt;值传递&lt;/font&gt;&lt;/span&gt;" style="text;html=1;strokeColor=none;fillColor=none;align=center;verticalAlign=middle;whiteSpace=wrap;rounded=0;dashed=1;fontFamily=Times New Roman;fontStyle=1" parent="1" vertex="1">
          <mxGeometry x="612.6600000000001" y="-588" width="63.43" height="20" as="geometry" />
        </mxCell>
        <mxCell id="OeQdHstX1ipTwiemMq3e-203" value="&lt;span style=&quot;font-weight: normal&quot;&gt;&lt;font style=&quot;font-size: 16px&quot;&gt;最大为6144*2=12288byte（12kB）&lt;/font&gt;&lt;/span&gt;" style="text;html=1;strokeColor=none;fillColor=none;align=center;verticalAlign=middle;whiteSpace=wrap;rounded=0;dashed=1;fontFamily=Times New Roman;fontStyle=1" parent="1" vertex="1">
          <mxGeometry x="148.35000000000002" y="-448" width="245.18" height="20" as="geometry" />
        </mxCell>
        <mxCell id="OeQdHstX1ipTwiemMq3e-205" value="" style="rounded=1;whiteSpace=wrap;html=1;strokeWidth=2;fillColor=#CCE7E5;strokeColor=#00897B;arcSize=12;fontFamily=Times New Roman;fontStyle=1;fontSize=18;" parent="1" vertex="1">
          <mxGeometry x="-270.31999999999994" y="-158" width="120.11" height="40" as="geometry" />
        </mxCell>
        <mxCell id="OeQdHstX1ipTwiemMq3e-206" value="&amp;amp;svr-&amp;gt;nav" style="rounded=1;whiteSpace=wrap;html=1;strokeWidth=2;gradientDirection=east;fillColor=#EEEEEE;strokeColor=none;fontFamily=Times New Roman;fontStyle=1;fontSize=18;" parent="1" vertex="1">
          <mxGeometry x="-260.68000000000006" y="-153" width="101.36" height="30" as="geometry" />
        </mxCell>
        <mxCell id="OeQdHstX1ipTwiemMq3e-207" value="" style="rounded=1;whiteSpace=wrap;html=1;strokeWidth=2;fillColor=#CCE7E5;strokeColor=#00897B;arcSize=12;fontFamily=Times New Roman;fontStyle=1;fontSize=18;" parent="1" vertex="1">
          <mxGeometry x="-103.58999999999992" y="-158" width="120.11" height="40" as="geometry" />
        </mxCell>
        <mxCell id="OeQdHstX1ipTwiemMq3e-208" value="obs.data" style="rounded=1;whiteSpace=wrap;html=1;strokeWidth=2;gradientDirection=east;fillColor=#EEEEEE;strokeColor=none;fontFamily=Times New Roman;fontStyle=1;fontSize=18;" parent="1" vertex="1">
          <mxGeometry x="-93.95000000000005" y="-153" width="101.36" height="30" as="geometry" />
        </mxCell>
        <mxCell id="OeQdHstX1ipTwiemMq3e-209" value="" style="rounded=1;whiteSpace=wrap;html=1;strokeWidth=2;fillColor=#CCE7E5;strokeColor=#00897B;arcSize=12;fontFamily=Times New Roman;fontStyle=1;fontSize=18;" parent="1" vertex="1">
          <mxGeometry x="58.10000000000002" y="-158" width="120.11" height="40" as="geometry" />
        </mxCell>
        <mxCell id="OeQdHstX1ipTwiemMq3e-210" value="&amp;amp;svr-&amp;gt;rtk" style="rounded=1;whiteSpace=wrap;html=1;strokeWidth=2;gradientDirection=east;fillColor=#EEEEEE;strokeColor=none;fontFamily=Times New Roman;fontStyle=1;fontSize=18;" parent="1" vertex="1">
          <mxGeometry x="67.7399999999999" y="-153" width="101.36" height="30" as="geometry" />
        </mxCell>
        <mxCell id="OeQdHstX1ipTwiemMq3e-217" value="" style="shape=flexArrow;endArrow=classic;html=1;rounded=1;fontSize=16;fontColor=#000000;strokeWidth=2;fillColor=#f5f5f5;strokeColor=#666666;" parent="1" edge="1">
          <mxGeometry width="50" height="50" relative="1" as="geometry">
            <mxPoint x="32.89999999999998" y="-278" as="sourcePoint" />
            <mxPoint x="-37.10000000000002" y="-178" as="targetPoint" />
          </mxGeometry>
        </mxCell>
        <mxCell id="wp81bA6mAi3hyo_PxzSs-4" value="&lt;span style=&quot;font-weight: normal&quot;&gt;&lt;font style=&quot;font-size: 16px&quot;&gt;引用传递&lt;/font&gt;&lt;/span&gt;" style="text;html=1;strokeColor=none;fillColor=none;align=center;verticalAlign=middle;whiteSpace=wrap;rounded=0;dashed=1;fontFamily=Times New Roman;fontStyle=1" parent="1" vertex="1">
          <mxGeometry x="-451.52" y="-418" width="70" height="20" as="geometry" />
        </mxCell>
        <mxCell id="wp81bA6mAi3hyo_PxzSs-10" value="&lt;span style=&quot;font-weight: normal&quot;&gt;&lt;font style=&quot;font-size: 16px&quot;&gt;当前为1536*2=3072byte（3kB）&lt;/font&gt;&lt;/span&gt;" style="text;html=1;strokeColor=none;fillColor=none;align=center;verticalAlign=middle;whiteSpace=wrap;rounded=0;dashed=1;fontFamily=Times New Roman;fontStyle=1" parent="1" vertex="1">
          <mxGeometry x="161.40999999999997" y="-418" width="230.75" height="20" as="geometry" />
        </mxCell>
        <mxCell id="zSCRI67G9DwhUW2mgSZW-1" value="&lt;span style=&quot;font-size: 20px&quot;&gt;&lt;span style=&quot;font-weight: normal&quot;&gt;当前为&lt;/span&gt;2 * &lt;font color=&quot;#cc0000&quot;&gt;10&lt;/font&gt;&amp;nbsp;* &lt;font color=&quot;#cc0000&quot;&gt;16&lt;/font&gt;&amp;nbsp;* 96&lt;/span&gt;" style="text;html=1;strokeColor=none;fillColor=none;align=center;verticalAlign=middle;whiteSpace=wrap;rounded=0;dashed=1;fontFamily=Times New Roman;fontStyle=1" parent="1" vertex="1">
          <mxGeometry x="-482.51" y="-950" width="201.96" height="20" as="geometry" />
        </mxCell>
      </root>
    </mxGraphModel>
  </diagram>
</mxfile>
